<svg width="300" height="220" viewBox="0 0 300 220" fill="none" xmlns="http://www.w3.org/2000/svg">
  <defs>
    <linearGradient id="petal" x1="150" y1="0" x2="150" y2="180" gradientUnits="userSpaceOnUse">
      <stop stop-color="#F05AA8"/>
      <stop offset="1" stop-color="#D93F8C"/>
    </linearGradient>
  </defs>

  <g transform="translate(22 4)">
    <path d="M128 6C109 38 97 58 97 82C97 111 118 132 128 144C138 132 159 111 159 82C159 58 147 38 128 6Z" fill="url(#petal)"/>
    <path d="M128 145L150 191H106L128 145Z" fill="url(#petal)"/>
    <path d="M95 90C71 71 40 72 23 88C8 103 6 128 19 144C34 163 63 165 86 149C72 147 58 139 51 127C42 112 46 95 61 87C72 81 85 83 95 90Z" fill="url(#petal)"/>
    <path d="M160 90C184 71 215 72 232 88C247 103 249 128 236 144C221 163 192 165 169 149C183 147 197 139 204 127C213 112 209 95 194 87C183 81 170 83 160 90Z" fill="url(#petal)" opacity="0.9"/>
    <path d="M139 92C156 80 178 82 193 95" stroke="#F28FBC" stroke-width="4" stroke-linecap="round"/>
    <path d="M140 101C163 93 188 100 204 116" stroke="#F7B7D3" stroke-width="3" stroke-linecap="round"/>

    <g transform="translate(139 72)" stroke="#F6D7E7" stroke-width="2.4" stroke-linecap="round" stroke-linejoin="round">
      <path d="M0 22C15 6 35 2 53 10C68 17 79 29 92 29"/>
      <path d="M48 11C40 22 42 36 53 44"/>
      <path d="M24 12C17 21 19 34 28 41"/>
      <path d="M67 17C61 25 61 36 69 43"/>
      <path d="M88 28C83 33 82 40 86 46"/>
      <path d="M8 19C4 25 4 31 8 37"/>
      <circle cx="18" cy="12" r="7"/>
      <circle cx="34" cy="8" r="6"/>
      <circle cx="50" cy="12" r="7"/>
      <circle cx="66" cy="16" r="6"/>
      <circle cx="82" cy="27" r="6"/>
    </g>
  </g>

  <text x="150" y="205" text-anchor="middle" fill="#FFFFFF" font-family="Inter, Arial, sans-serif" font-size="28" font-weight="800" letter-spacing="3">FLEURS-DE-LEA</text>
</svg>
